<svg version="1.1" xmlns="http://www.w3.org/2000/svg" viewBox="0 0 259.11114501953125 268.0000457763672" width="259.11114501953125" height="268.0000457763672">
  <!-- svg-source:excalidraw -->
  
  <defs>
    <style class="style-fonts">
      @font-face {
        font-family: "Virgil";
        src: url("https://excalidraw.com/Virgil.woff2");
      }
      @font-face {
        font-family: "Cascadia";
        src: url("https://excalidraw.com/Cascadia.woff2");
      }
      @font-face {
        font-family: "Assistant";
        src: url("https://excalidraw.com/Assistant-Regular.woff2");
      }
    </style>
    
  </defs>
  <g stroke-linecap="round" transform="translate(10 10) rotate(0 119.55557250976562 124.0000228881836)"><path d="M239.11 124 C239.11 127.6, 238.96 131.22, 238.66 134.81 C238.35 138.4, 237.9 141.98, 237.29 145.53 C236.69 149.08, 235.94 152.61, 235.04 156.09 C234.14 159.57, 233.09 163.03, 231.9 166.41 C230.71 169.8, 229.38 173.14, 227.91 176.4 C226.44 179.67, 224.83 182.88, 223.09 186 C221.36 189.12, 219.48 192.17, 217.49 195.12 C215.5 198.07, 213.37 200.95, 211.14 203.71 C208.91 206.47, 206.55 209.13, 204.09 211.68 C201.64 214.23, 199.07 216.67, 196.4 218.99 C193.74 221.31, 190.98 223.51, 188.13 225.57 C185.28 227.64, 182.34 229.59, 179.33 231.39 C176.33 233.19, 173.23 234.86, 170.08 236.38 C166.93 237.9, 163.71 239.29, 160.45 240.52 C157.18 241.75, 153.85 242.84, 150.5 243.77 C147.14 244.71, 143.74 245.49, 140.32 246.12 C136.9 246.74, 133.44 247.21, 129.98 247.53 C126.52 247.84, 123.03 248, 119.56 248 C116.08 248, 112.6 247.84, 109.14 247.53 C105.68 247.21, 102.22 246.74, 98.79 246.12 C95.37 245.49, 91.97 244.71, 88.61 243.77 C85.26 242.84, 81.93 241.75, 78.67 240.52 C75.4 239.29, 72.18 237.9, 69.03 236.38 C65.88 234.86, 62.79 233.19, 59.78 231.39 C56.77 229.59, 53.83 227.64, 50.98 225.57 C48.14 223.51, 45.37 221.31, 42.71 218.99 C40.05 216.67, 37.47 214.23, 35.02 211.68 C32.56 209.13, 30.2 206.47, 27.97 203.71 C25.74 200.95, 23.61 198.07, 21.62 195.12 C19.63 192.17, 17.75 189.12, 16.02 186 C14.28 182.88, 12.67 179.67, 11.2 176.4 C9.73 173.14, 8.4 169.8, 7.21 166.41 C6.02 163.03, 4.97 159.57, 4.07 156.09 C3.17 152.61, 2.42 149.08, 1.82 145.53 C1.21 141.98, 0.76 138.4, 0.45 134.81 C0.15 131.22, 0 127.6, 0 124 C0 120.4, 0.15 116.78, 0.45 113.19 C0.76 109.6, 1.21 106.02, 1.82 102.47 C2.42 98.92, 3.17 95.39, 4.07 91.91 C4.97 88.43, 6.02 84.97, 7.21 81.59 C8.4 78.2, 9.73 74.86, 11.2 71.6 C12.67 68.33, 14.28 65.12, 16.02 62 C17.75 58.88, 19.63 55.83, 21.62 52.88 C23.61 49.93, 25.74 47.05, 27.97 44.29 C30.2 41.53, 32.56 38.87, 35.02 36.32 C37.47 33.77, 40.05 31.33, 42.71 29.01 C45.37 26.69, 48.14 24.49, 50.98 22.43 C53.83 20.36, 56.77 18.41, 59.78 16.61 C62.79 14.81, 65.88 13.14, 69.03 11.62 C72.18 10.1, 75.4 8.71, 78.67 7.48 C81.93 6.25, 85.26 5.16, 88.61 4.23 C91.97 3.29, 95.37 2.51, 98.79 1.88 C102.22 1.26, 105.68 0.79, 109.14 0.47 C112.6 0.16, 116.08 0, 119.56 0 C123.03 0, 126.52 0.16, 129.98 0.47 C133.44 0.79, 136.9 1.26, 140.32 1.88 C143.74 2.51, 147.14 3.29, 150.5 4.23 C153.85 5.16, 157.18 6.25, 160.45 7.48 C163.71 8.71, 166.93 10.1, 170.08 11.62 C173.23 13.14, 176.33 14.81, 179.33 16.61 C182.34 18.41, 185.28 20.36, 188.13 22.43 C190.98 24.49, 193.74 26.69, 196.4 29.01 C199.07 31.33, 201.64 33.77, 204.09 36.32 C206.55 38.87, 208.91 41.53, 211.14 44.29 C213.37 47.05, 215.5 49.93, 217.49 52.88 C219.48 55.83, 221.36 58.88, 223.09 62 C224.83 65.12, 226.44 68.33, 227.91 71.6 C229.38 74.86, 230.71 78.2, 231.9 81.59 C233.09 84.97, 234.14 88.43, 235.04 91.91 C235.94 95.39, 236.69 98.92, 237.29 102.47 C237.9 106.02, 238.35 109.6, 238.66 113.19 C238.96 116.78, 239.04 122.2, 239.11 124 C239.19 125.8, 239.19 122.2, 239.11 124" stroke="none" stroke-width="0" fill="#1e1e1e"></path><path d="M239.11 124 C239.11 127.6, 238.96 131.22, 238.66 134.81 C238.35 138.4, 237.9 141.98, 237.29 145.53 C236.69 149.08, 235.94 152.61, 235.04 156.09 C234.14 159.57, 233.09 163.03, 231.9 166.41 C230.71 169.8, 229.38 173.14, 227.91 176.4 C226.44 179.67, 224.83 182.88, 223.09 186 C221.36 189.12, 219.48 192.17, 217.49 195.12 C215.5 198.07, 213.37 200.95, 211.14 203.71 C208.91 206.47, 206.55 209.13, 204.09 211.68 C201.64 214.23, 199.07 216.67, 196.4 218.99 C193.74 221.31, 190.98 223.51, 188.13 225.57 C185.28 227.64, 182.34 229.59, 179.33 231.39 C176.33 233.19, 173.23 234.86, 170.08 236.38 C166.93 237.9, 163.71 239.29, 160.45 240.52 C157.18 241.75, 153.85 242.84, 150.5 243.77 C147.14 244.71, 143.74 245.49, 140.32 246.12 C136.9 246.74, 133.44 247.21, 129.98 247.53 C126.52 247.84, 123.03 248, 119.56 248 C116.08 248, 112.6 247.84, 109.14 247.53 C105.68 247.21, 102.22 246.74, 98.79 246.12 C95.37 245.49, 91.97 244.71, 88.61 243.77 C85.26 242.84, 81.93 241.75, 78.67 240.52 C75.4 239.29, 72.18 237.9, 69.03 236.38 C65.88 234.86, 62.79 233.19, 59.78 231.39 C56.77 229.59, 53.83 227.64, 50.98 225.57 C48.14 223.51, 45.37 221.31, 42.71 218.99 C40.05 216.67, 37.47 214.23, 35.02 211.68 C32.56 209.13, 30.2 206.47, 27.97 203.71 C25.74 200.95, 23.61 198.07, 21.62 195.12 C19.63 192.17, 17.75 189.12, 16.02 186 C14.28 182.88, 12.67 179.67, 11.2 176.4 C9.73 173.14, 8.4 169.8, 7.21 166.41 C6.02 163.03, 4.97 159.57, 4.07 156.09 C3.17 152.61, 2.42 149.08, 1.82 145.53 C1.21 141.98, 0.76 138.4, 0.45 134.81 C0.15 131.22, 0 127.6, 0 124 C0 120.4, 0.15 116.78, 0.45 113.19 C0.76 109.6, 1.21 106.02, 1.82 102.47 C2.42 98.92, 3.17 95.39, 4.07 91.91 C4.97 88.43, 6.02 84.97, 7.21 81.59 C8.4 78.2, 9.73 74.86, 11.2 71.6 C12.67 68.33, 14.28 65.12, 16.02 62 C17.75 58.88, 19.63 55.83, 21.62 52.88 C23.61 49.93, 25.74 47.05, 27.97 44.29 C30.2 41.53, 32.56 38.87, 35.02 36.32 C37.47 33.77, 40.05 31.33, 42.71 29.01 C45.37 26.69, 48.14 24.49, 50.98 22.43 C53.83 20.36, 56.77 18.41, 59.78 16.61 C62.79 14.81, 65.88 13.14, 69.03 11.62 C72.18 10.1, 75.4 8.71, 78.67 7.48 C81.93 6.25, 85.26 5.16, 88.61 4.23 C91.97 3.29, 95.37 2.51, 98.79 1.88 C102.22 1.26, 105.68 0.79, 109.14 0.47 C112.6 0.16, 116.08 0, 119.56 0 C123.03 0, 126.52 0.16, 129.98 0.47 C133.44 0.79, 136.9 1.26, 140.32 1.88 C143.74 2.51, 147.14 3.29, 150.5 4.23 C153.85 5.16, 157.18 6.25, 160.45 7.48 C163.71 8.71, 166.93 10.1, 170.08 11.62 C173.23 13.14, 176.33 14.81, 179.33 16.61 C182.34 18.41, 185.28 20.36, 188.13 22.43 C190.98 24.49, 193.74 26.69, 196.4 29.01 C199.07 31.33, 201.64 33.77, 204.09 36.32 C206.55 38.87, 208.91 41.53, 211.14 44.29 C213.37 47.05, 215.5 49.93, 217.49 52.88 C219.48 55.83, 221.36 58.88, 223.09 62 C224.83 65.12, 226.44 68.33, 227.91 71.6 C229.38 74.86, 230.71 78.2, 231.9 81.59 C233.09 84.97, 234.14 88.43, 235.04 91.91 C235.94 95.39, 236.69 98.92, 237.29 102.47 C237.9 106.02, 238.35 109.6, 238.66 113.19 C238.96 116.78, 239.04 122.2, 239.11 124 C239.19 125.8, 239.19 122.2, 239.11 124" stroke="#1e1e1e" stroke-width="2" fill="none"></path></g><g transform="translate(123.65764145947037 121.8187658366619) rotate(0 5.859375 12)"><text x="5.859375" y="19.3125" font-family="Cascadia, Segoe UI Emoji" font-size="20px" fill="#1e1e1e" text-anchor="middle" style="white-space: pre;" direction="ltr" dominant-baseline="alphabetic">P</text></g><g transform="translate(79.8887939453125 13.555618286132812) rotate(0 58.3037109375 119.40624999999991)"><text x="0" y="192.16943359374986" font-family="Cascadia, Segoe UI Emoji" font-size="199.01041666666654px" fill="#ffffff" text-anchor="start" style="white-space: pre;" direction="ltr" dominant-baseline="alphabetic">P</text></g></svg>